<svg width="30" height="24" viewBox="0 0 30 24" fill="none" xmlns="http://www.w3.org/2000/svg">
<rect x="0.5" y="1.14844" width="29" height="22" rx="3.5" stroke="#D1D1D1"/>
<path d="M14.448 17.1204C14.3413 17.1204 14.2507 17.0831 14.176 17.0084C14.1013 16.9338 14.064 16.8431 14.064 16.7364V13.6164H10.992C10.8853 13.6164 10.7947 13.5791 10.72 13.5044C10.6453 13.4298 10.608 13.3338 10.608 13.2164V12.3844C10.608 12.2671 10.6453 12.1764 10.72 12.1124C10.7947 12.0378 10.8853 12.0004 10.992 12.0004H14.064V8.96044C14.064 8.85377 14.1013 8.7631 14.176 8.68844C14.2507 8.61377 14.3413 8.57644 14.448 8.57644H15.376C15.4933 8.57644 15.584 8.61377 15.648 8.68844C15.7227 8.7631 15.76 8.85377 15.76 8.96044V12.0004H18.832C18.9387 12.0004 19.0293 12.0378 19.104 12.1124C19.1787 12.1764 19.216 12.2671 19.216 12.3844V13.2164C19.216 13.3338 19.1787 13.4298 19.104 13.5044C19.0293 13.5791 18.9387 13.6164 18.832 13.6164H15.76V16.7364C15.76 16.8431 15.7227 16.9338 15.648 17.0084C15.584 17.0831 15.4933 17.1204 15.376 17.1204H14.448Z" fill="#21232C"/>
</svg>
