<svg width="28" height="24" viewBox="0 0 28 24" fill="none" xmlns="http://www.w3.org/2000/svg">
<rect x="0.5" y="1" width="27" height="22" rx="3.5" stroke="#D1D1D1"/>
<path d="M11.392 13.612C11.2747 13.612 11.1787 13.5747 11.104 13.5C11.04 13.4253 11.008 13.3347 11.008 13.228V12.172C11.008 12.0653 11.04 11.9747 11.104 11.9C11.1787 11.8253 11.2747 11.788 11.392 11.788H16.304C16.4107 11.788 16.5013 11.8253 16.576 11.9C16.6507 11.9747 16.688 12.0653 16.688 12.172V13.228C16.688 13.3347 16.6507 13.4253 16.576 13.5C16.5013 13.5747 16.4107 13.612 16.304 13.612H11.392Z" fill="#21232C"/>
</svg>
